<svg xmlns="http://www.w3.org/2000/svg" viewBox="0 0 200 200" width="200" height="200" fill="none" stroke-linecap="round" stroke-linejoin="round" stroke-width="5">
  <!-- Sneaker silhouette -->
  <path d="M30 130 L30 155 Q30 165 40 165 L165 165 Q175 165 175 155 L175 140 Q175 125 160 122 L120 115 L95 90 L75 90 Q60 90 55 105 L48 122 Q30 125 30 130 Z" stroke="#007AFF"/>
  <!-- Sole stripe -->
  <line x1="30" y1="155" x2="175" y2="155" stroke="#00BFA5"/>
  <!-- Laces -->
  <path d="M75 110 L100 100 M82 120 L107 110 M89 130 L114 120" stroke="#00BFA5"/>
  <!-- Heel detail -->
  <path d="M55 130 Q50 125 48 122" stroke="#00BFA5"/>
</svg>
