<svg xmlns="http://www.w3.org/2000/svg" viewBox="0 0 200 200" width="200" height="200" fill="none" stroke-linecap="round" stroke-linejoin="round" stroke-width="4">
  <!-- Perfume bottle body -->
  <path d="M65 90 Q60 80 65 75 L135 75 Q140 80 135 90 L138 170 Q138 178 130 178 L70 178 Q62 178 62 170 Z" stroke="#007AFF"/>
  <!-- Neck -->
  <rect x="88" y="50" width="24" height="25" stroke="#007AFF"/>
  <!-- Cap -->
  <rect x="83" y="32" width="34" height="20" rx="3" stroke="#007AFF"/>
  <!-- Label -->
  <rect x="78" y="115" width="44" height="40" stroke="#00BFA5" fill="#00BFA5" fill-opacity="0.12"/>
  <line x1="86" y1="130" x2="114" y2="130" stroke="#00BFA5" stroke-width="2"/>
  <line x1="92" y1="142" x2="108" y2="142" stroke="#00BFA5" stroke-width="2"/>
  <!-- Sprayer tube -->
  <line x1="117" y1="42" x2="138" y2="42" stroke="#00BFA5"/>
  <!-- Sprayer bulb -->
  <circle cx="148" cy="42" r="8" stroke="#00BFA5"/>
  <!-- Mist -->
  <circle cx="162" cy="32" r="1.5" fill="#00BFA5"/>
  <circle cx="168" cy="42" r="1.5" fill="#00BFA5"/>
  <circle cx="162" cy="52" r="1.5" fill="#00BFA5"/>
</svg>
