<svg xmlns="http://www.w3.org/2000/svg" viewBox="0 0 200 200" width="200" height="200" fill="none" stroke-linecap="round" stroke-linejoin="round" stroke-width="4">
  <!-- Baby bottle nipple -->
  <path d="M85 30 Q85 18 100 18 Q115 18 115 30 L115 45 L85 45 Z" stroke="#00BFA5" fill="#00BFA5" fill-opacity="0.15"/>
  <!-- Collar ring -->
  <rect x="68" y="45" width="64" height="18" rx="3" stroke="#007AFF"/>
  <!-- Bottle body -->
  <path d="M70 63 L70 168 Q70 178 80 178 L120 178 Q130 178 130 168 L130 63" stroke="#007AFF"/>
  <!-- Measurement marks -->
  <line x1="78" y1="90" x2="92" y2="90" stroke="#00BFA5" stroke-width="2"/>
  <line x1="78" y1="115" x2="92" y2="115" stroke="#00BFA5" stroke-width="2"/>
  <line x1="78" y1="140" x2="92" y2="140" stroke="#00BFA5" stroke-width="2"/>
  <!-- Liquid -->
  <path d="M72 130 L128 130 L128 168 Q128 175 122 175 L78 175 Q72 175 72 168 Z" fill="#00BFA5" fill-opacity="0.15" stroke="none"/>
  <line x1="72" y1="130" x2="128" y2="130" stroke="#00BFA5"/>
</svg>
