<svg xmlns="http://www.w3.org/2000/svg" viewBox="0 0 200 200" width="200" height="200" fill="none" stroke-linecap="round" stroke-linejoin="round" stroke-width="4">
  <!-- Controller body -->
  <path d="M55 75 Q28 75 28 110 L28 148 Q28 168 48 168 Q62 168 68 154 L78 132 L122 132 L132 154 Q138 168 152 168 Q172 168 172 148 L172 110 Q172 75 145 75 Z" stroke="#007AFF"/>
  <!-- D-pad cross -->
  <rect x="52" y="100" width="24" height="8" rx="1" stroke="#00BFA5" fill="#00BFA5" fill-opacity="0.18"/>
  <rect x="60" y="92" width="8" height="24" rx="1" stroke="#00BFA5" fill="#00BFA5" fill-opacity="0.18"/>
  <!-- Action buttons -->
  <circle cx="138" cy="98" r="5" stroke="#00BFA5" fill="#00BFA5" fill-opacity="0.2"/>
  <circle cx="154" cy="110" r="5" stroke="#00BFA5" fill="#00BFA5" fill-opacity="0.2"/>
  <circle cx="122" cy="110" r="5" stroke="#00BFA5" fill="#00BFA5" fill-opacity="0.2"/>
  <circle cx="138" cy="122" r="5" stroke="#00BFA5" fill="#00BFA5" fill-opacity="0.2"/>
</svg>
