<svg xmlns="http://www.w3.org/2000/svg" viewBox="0 0 200 200" width="200" height="200" fill="none" stroke-linecap="round" stroke-linejoin="round" stroke-width="5">
  <!-- Wine bottle -->
  <rect x="55" y="20" width="20" height="18" stroke="#007AFF"/>
  <line x1="58" y1="38" x2="58" y2="65" stroke="#007AFF"/>
  <line x1="72" y1="38" x2="72" y2="65" stroke="#007AFF"/>
  <path d="M58 65 Q42 75 38 100 V172 Q38 178 44 178 H86 Q92 178 92 172 V100 Q88 75 72 65" stroke="#007AFF"/>
  <rect x="42" y="115" width="46" height="40" stroke="#00BFA5"/>
  <!-- Wine glass -->
  <path d="M120 50 H170 L160 100 Q160 115 145 115 Q130 115 130 100 Z" stroke="#007AFF"/>
  <line x1="145" y1="115" x2="145" y2="170" stroke="#007AFF"/>
  <line x1="125" y1="170" x2="165" y2="170" stroke="#007AFF"/>
  <path d="M120 50 H170" stroke="#00BFA5"/>
</svg>
