<svg xmlns="http://www.w3.org/2000/svg" viewBox="0 0 200 200" width="200" height="200" fill="none" stroke-linecap="round" stroke-linejoin="round" stroke-width="4">
  <!-- Open book -->
  <path d="M28 50 Q60 42 100 55 Q140 42 172 50 L172 162 Q140 154 100 167 Q60 154 28 162 Z" stroke="#007AFF"/>
  <!-- Spine -->
  <line x1="100" y1="55" x2="100" y2="167" stroke="#007AFF"/>
  <!-- Left page lines -->
  <path d="M44 75 Q70 70 92 78" stroke="#00BFA5" stroke-width="2"/>
  <path d="M44 95 Q70 90 92 98" stroke="#00BFA5" stroke-width="2"/>
  <path d="M44 115 Q70 110 92 118" stroke="#00BFA5" stroke-width="2"/>
  <path d="M44 135 Q70 130 92 138" stroke="#00BFA5" stroke-width="2"/>
  <!-- Right page lines -->
  <path d="M108 78 Q130 70 156 75" stroke="#00BFA5" stroke-width="2"/>
  <path d="M108 98 Q130 90 156 95" stroke="#00BFA5" stroke-width="2"/>
  <path d="M108 118 Q130 110 156 115" stroke="#00BFA5" stroke-width="2"/>
  <path d="M108 138 Q130 130 156 135" stroke="#00BFA5" stroke-width="2"/>
</svg>
