<svg xmlns="http://www.w3.org/2000/svg" viewBox="0 0 200 200" width="200" height="200" fill="none" stroke-linecap="round" stroke-linejoin="round" stroke-width="4">
  <!-- Whisky bottle -->
  <rect x="82" y="20" width="36" height="14" rx="2" stroke="#007AFF"/>
  <line x1="86" y1="34" x2="86" y2="60" stroke="#007AFF"/>
  <line x1="114" y1="34" x2="114" y2="60" stroke="#007AFF"/>
  <path d="M86 60 Q70 70 65 95 L65 170 Q65 178 73 178 L127 178 Q135 178 135 170 L135 95 Q130 70 114 60" stroke="#007AFF"/>
  <!-- Liquid level -->
  <path d="M68 130 L132 130 L132 170 Q132 175 127 175 L73 175 Q68 175 68 170 Z" fill="#00BFA5" fill-opacity="0.18" stroke="none"/>
  <line x1="68" y1="130" x2="132" y2="130" stroke="#00BFA5"/>
  <!-- Label -->
  <rect x="72" y="95" width="56" height="28" stroke="#00BFA5"/>
  <line x1="80" y1="105" x2="120" y2="105" stroke="#00BFA5" stroke-width="2"/>
  <line x1="86" y1="115" x2="114" y2="115" stroke="#00BFA5" stroke-width="2"/>
</svg>
