<svg xmlns="http://www.w3.org/2000/svg" viewBox="0 0 200 200" width="200" height="200" fill="none" stroke-linecap="round" stroke-linejoin="round" stroke-width="6">
  <!-- Suitcase -->
  <rect x="45" y="105" width="110" height="75" rx="6" stroke="#007AFF"/>
  <path d="M82 105 V90 Q82 82 90 82 H110 Q118 82 118 90 V105" stroke="#007AFF"/>
  <line x1="100" y1="120" x2="100" y2="165" stroke="#007AFF"/>
  <line x1="65" y1="120" x2="65" y2="165" stroke="#007AFF"/>
  <line x1="135" y1="120" x2="135" y2="165" stroke="#007AFF"/>
  <!-- Plane (clear silhouette) -->
  <path d="M155 25 L175 35 L150 55 L150 70 L142 65 L138 78 L130 70 L122 78 L120 65 L112 70 L112 55 L100 48 Z" stroke="#00BFA5"/>
  <!-- Trail -->
  <path d="M115 75 Q108 82 102 90" stroke="#00BFA5" stroke-dasharray="3 5"/>
</svg>
