<svg xmlns="http://www.w3.org/2000/svg" viewBox="0 0 200 200" width="200" height="200" fill="none" stroke-linecap="round" stroke-linejoin="round" stroke-width="6">
  <!-- Suitcase -->
  <rect x="45" y="105" width="110" height="75" rx="6" stroke="#007AFF"/>
  <path d="M82 105 V90 Q82 82 90 82 H110 Q118 82 118 90 V105" stroke="#007AFF"/>
  <line x1="100" y1="120" x2="100" y2="165" stroke="#007AFF"/>
  <line x1="65" y1="120" x2="65" y2="165" stroke="#007AFF"/>
  <line x1="135" y1="120" x2="135" y2="165" stroke="#007AFF"/>
  <!-- Plane: classic top-view silhouette -->
  <g stroke="#00BFA5" transform="translate(100 50) rotate(35)">
    <!-- Fuselage -->
    <path d="M0 -40 Q6 -38 6 -10 L10 0 L10 20 L4 25 L4 35 L-4 35 L-4 25 L-10 20 L-10 0 L-6 -10 Q-6 -38 0 -40 Z"/>
    <!-- Main wings -->
    <path d="M-10 5 L-45 18 L-45 25 L-10 18 Z"/>
    <path d="M10 5 L45 18 L45 25 L10 18 Z"/>
    <!-- Tail wings -->
    <path d="M-4 28 L-15 33 L-15 36 L-4 33 Z"/>
    <path d="M4 28 L15 33 L15 36 L4 33 Z"/>
  </g>
</svg>
