<?xml version="1.0" encoding="utf-8" ?><svg xmlns="http://www.w3.org/2000/svg" xmlns:xlink="http://www.w3.org/1999/xlink" width="1024" height="1024" viewBox="0 0 1024 1024"><defs><linearGradient id="gradient_0" gradientUnits="userSpaceOnUse" x1="561.45734" y1="496.86972" x2="402.64487" y2="305.22449"><stop offset="0" stop-color="#3057A3"/><stop offset="1" stop-color="#63ADDB"/></linearGradient></defs><path fill="url(#gradient_0)" d="M371.688 372.569C366.532 361.041 367.477 342.467 371.625 330.585C376.815 315.733 387.753 303.588 401.982 296.877C418.686 288.951 434.47 289.109 451.62 295.279C464.743 299.63 474.133 312.281 483.898 321.51C495.316 332.301 506.195 343.821 517.541 354.663C529.175 365.699 540.61 377.534 552.227 388.69C555.261 391.605 568.983 404.845 570.996 407.507C573.555 409.859 592.412 428.182 593.672 430.036C602.851 438.91 611.952 447.863 620.973 456.897C638.77 474.535 655.115 487.73 655.899 515.075C656.241 530.893 650.267 546.196 639.298 557.599C627.718 569.717 614.27 576.373 597.506 576.739C583.075 577.054 565.133 571.913 554.782 561.606C544.45 551.317 534.582 540.745 524.047 530.483L506.352 513.341C503.514 510.597 499.037 506.524 496.701 503.687C494.463 502.353 479.404 487.117 477.066 484.563C475.516 483.479 461.18 469.27 459.158 467.155C449.847 457.419 438.036 447.321 429.15 437.628C426.193 435.324 414.418 423.077 411.098 419.781L392.102 400.926C384.475 393.36 373.979 383.583 371.688 372.569Z"/><defs><linearGradient id="gradient_1" gradientUnits="userSpaceOnUse" x1="564.97278" y1="482.52686" x2="630.47668" y2="563.71198"><stop offset="0" stop-color="#4F90C6"/><stop offset="1" stop-color="#7BD2F2"/></linearGradient></defs><path fill="url(#gradient_1)" d="M520.632 526.005C520.764 525.252 521.15 523.319 521.531 522.755C525.245 517.933 531.541 510.061 536.409 506.489C557.806 490.788 578.278 473.844 599.596 458.118C602.888 455.689 611.008 453.895 615.073 452.469C610.394 447.464 605.472 442.852 600.592 438.061C598.325 435.836 595.392 433.414 593.441 431.044L593.672 430.036C602.851 438.91 611.952 447.863 620.973 456.897C638.77 474.535 655.115 487.73 655.899 515.075C656.241 530.893 650.267 546.196 639.298 557.599C627.718 569.717 614.27 576.373 597.506 576.739C583.075 577.054 565.133 571.913 554.782 561.606C544.45 551.317 534.582 540.745 524.047 530.483L506.352 513.341C503.514 510.597 499.037 506.524 496.701 503.687L497.264 503.399C498.439 503.979 518.335 523.43 520.632 526.005Z"/><path fill="#74C0E9" d="M371.688 372.569C366.532 361.041 367.477 342.467 371.625 330.585C376.815 315.733 387.753 303.588 401.982 296.877C418.686 288.951 434.47 289.109 451.62 295.279C449.137 295.642 446.38 294.407 443.913 293.81C435.092 291.677 427.074 290.35 418.209 292.791C419.2 294.685 419.496 294.505 421.749 294.81C427.621 300.923 421.011 306.974 416.271 311.376C411.765 315.56 406.089 318.866 401.704 323.261C396.837 327.681 392.415 333.241 387.622 337.479C382.905 341.649 375.688 344.195 371.285 349.201L369 344.826C368.929 351.19 368.857 356.134 369.994 362.499C370.309 364.259 371.938 371.372 371.688 372.569Z"/><path fill="#3B63A7" d="M517.541 354.663C529.175 365.699 540.61 377.534 552.227 388.69C555.261 391.605 568.983 404.845 570.996 407.507C568.413 407.257 563.75 401.688 561.352 399.385C552.135 401.819 543.342 405.66 534.01 407.422C534.284 396.612 537.081 395.718 540.812 386.156C541.169 385.284 542.342 381.213 541.768 380.418C537.591 374.63 519.495 360.263 517.541 354.663Z"/><path fill="#3B63A7" d="M429.15 437.628C433.705 438.451 447.355 456.357 452.815 458.115C456.359 459.256 470.251 449.411 475.247 453.28C477.522 459.767 465.645 466.728 466.418 472.285C466.854 475.419 477.627 481.255 477.066 484.563C475.516 483.479 461.18 469.27 459.158 467.155C449.847 457.419 438.036 447.321 429.15 437.628Z"/><defs><linearGradient id="gradient_2" gradientUnits="userSpaceOnUse" x1="575.27753" y1="278.26804" x2="633.72308" y2="351.73502"><stop offset="0" stop-color="#182076"/><stop offset="1" stop-color="#3663A8"/></linearGradient></defs><path fill="url(#gradient_2)" d="M595.739 266.981C606.685 263.615 620.615 262.561 631.633 266.025C653.72 270.058 676.115 294.251 677.991 316.639C679.339 322.401 679.017 335.667 679.019 342.1L679.021 377.255L679.02 435.622C679.044 445.975 679.154 456.329 679.125 466.683C679.103 474.979 675.069 477.362 668.786 471.373C657.076 460.211 645.653 448.733 634.195 437.308L580.454 384.268C568.877 373.205 558.661 364.875 553.495 349.247C548.097 332.672 549.459 314.636 557.286 299.06C565.397 283.19 578.901 272.406 595.739 266.981Z"/><defs><linearGradient id="gradient_3" gradientUnits="userSpaceOnUse" x1="627.78436" y1="348.29535" x2="704.99054" y2="451.26248"><stop offset="0" stop-color="#345FA5"/><stop offset="1" stop-color="#76CAED"/></linearGradient></defs><path fill="url(#gradient_3)" d="M580.454 384.268C582.252 382.546 588.025 379.684 590.393 378.043C597.194 373.329 604.23 368.893 611.1 364.302C615.092 361.756 618.576 357.849 622.397 355.184C639.054 343.568 652.531 327.99 670.891 318.956C672.509 318.159 675.013 319.157 676.526 318.39C677.077 318.111 676.371 317.532 677.991 316.639C679.339 322.401 679.017 335.667 679.019 342.1L679.021 377.255L679.02 435.622C679.044 445.975 679.154 456.329 679.125 466.683C679.103 474.979 675.069 477.362 668.786 471.373C657.076 460.211 645.653 448.733 634.195 437.308L580.454 384.268Z"/><path fill="#1D2374" d="M595.739 266.981C606.685 263.615 620.615 262.561 631.633 266.025C627.878 266.782 624.692 265.032 621.823 265.355C612.569 266.399 605.194 268.158 595.739 266.981Z"/><defs><linearGradient id="gradient_4" gradientUnits="userSpaceOnUse" x1="448.06952" y1="586.44141" x2="358.59491" y2="480.33746"><stop offset="0" stop-color="#171F78"/><stop offset="1" stop-color="#4985C2"/></linearGradient></defs><path fill="url(#gradient_4)" d="M344.902 449.934C344.725 447.976 344.624 438.443 344.817 436.733C345.709 428.821 342.904 400.52 346.32 394.56C348.515 393.278 351.059 393.262 353.017 395.013C357.675 399.18 361.537 404.124 365.963 408.555L399.186 441.327L402.209 444.315C418.907 461.246 436.496 477.43 453.391 494.177C457.174 497.927 460.334 501.409 463.124 505.967C469.042 515.763 472.126 527.009 472.031 538.454C472.037 555.743 464.994 572.287 452.529 584.268C440.39 596.332 423.873 602.95 406.763 602.606C389.299 602.272 373.903 596.017 361.879 583.33C345.496 566.044 344.429 547.688 344.769 525.274C344.905 516.299 344.621 506.575 344.692 497.487C344.592 483.368 344.195 463.785 344.902 449.934Z"/><defs><linearGradient id="gradient_5" gradientUnits="userSpaceOnUse" x1="374.4993" y1="468.41385" x2="325.00812" y2="415.66431"><stop offset="0" stop-color="#4B89C2"/><stop offset="1" stop-color="#7CC8EE"/></linearGradient></defs><path fill="url(#gradient_5)" d="M344.902 449.934C344.725 447.976 344.624 438.443 344.817 436.733C345.709 428.821 342.904 400.52 346.32 394.56C348.515 393.278 351.059 393.262 353.017 395.013C357.675 399.18 361.537 404.124 365.963 408.555L399.186 441.327L402.209 444.315C400.619 445.364 401.248 445.005 400.489 446.245C390.972 461.773 373.518 472.837 359.849 484.437C357.547 486.391 347.354 494.758 345.682 495.618C345.441 496.094 344.975 497.09 344.692 497.487C344.592 483.368 344.195 463.785 344.902 449.934Z"/><path fill="#4C86C2" d="M399.186 441.327L402.209 444.315C400.619 445.364 401.248 445.005 400.489 446.245C390.972 461.773 373.518 472.837 359.849 484.437C357.547 486.391 347.354 494.758 345.682 495.618C345.441 496.094 344.975 497.09 344.692 497.487C344.592 483.368 344.195 463.785 344.902 449.934C345.544 455.703 344.56 489.422 345.647 491.016C346.327 489.997 359.364 480.012 361.788 477.843C370.322 470.206 396.749 452.269 399.186 441.327Z"/><defs><linearGradient id="gradient_6" gradientUnits="userSpaceOnUse" x1="496.54404" y1="707.98511" x2="571.24384" y2="708.37152"><stop offset="0" stop-color="#4979B7"/><stop offset="1" stop-color="#5C9CCF"/></linearGradient></defs><path fill="url(#gradient_6)" d="M552.861 658.616C559.01 658.365 566.252 658.535 572.481 658.539C572.142 691.369 572.14 724.201 572.474 757.031L553.102 757.025L553 748.282C543.23 758.13 531.524 760.629 518.364 756.496C513.941 754.947 509.895 752.48 506.492 749.258C492.463 735.87 491.983 710.003 504.517 695.637C516.77 681.593 539.723 680.57 552.968 693.741C552.737 682.108 553.138 670.336 552.861 658.616ZM535.701 741.62C559.358 737.324 558.379 701.511 532.104 701.698C508.701 705.082 509.717 742.689 535.701 741.62Z"/><defs><linearGradient id="gradient_7" gradientUnits="userSpaceOnUse" x1="358.2804" y1="711.51849" x2="441.70605" y2="710.15356"><stop offset="0" stop-color="#243284"/><stop offset="1" stop-color="#35599E"/></linearGradient></defs><path fill="url(#gradient_7)" d="M358.109 665.561C362.088 665.876 371.237 665.525 375.77 665.51C380.358 670.21 388.146 680.714 392.691 686.449L422.915 724.465C422.371 719.694 422.509 710.954 422.508 705.879C422.505 692.498 422.807 679.138 422.835 665.732C428.941 665.52 436.106 665.709 442.405 665.597C441.561 674.843 441.934 695.512 442.048 705.539C442.228 721.369 441.501 741.533 442.39 756.993C436.499 757 430.266 757.139 424.416 756.691C419.258 751.001 412.782 742.507 407.899 736.357C398.09 723.836 388.138 711.426 378.047 699.13C377.438 717.398 377.957 738.528 377.957 757.02L358.195 757.029C358.019 726.976 358.951 695.425 358.109 665.561Z"/><path fill="#74C0E9" d="M634.968 669.424C641.471 669.631 648.086 669.507 654.6 669.46C654.695 675.362 654.656 681.264 654.483 687.164L673.518 687.049L673.532 702.503C667.537 702.326 660.883 702.47 654.841 702.481C655.211 712.519 654.081 723.636 654.943 733.537C655.781 743.167 664.381 743.367 672.031 740.033L674.83 748.715L676.952 754.228C661.779 761.704 639.474 759.334 636.175 739.976C634.298 728.964 635.521 713.995 635.4 702.52L624.175 702.532C623.96 697.796 624.089 692.226 624.081 687.428L635.053 687.273C635.062 681.324 635.034 675.374 634.968 669.424Z"/><path fill="#74C0E9" d="M592.013 665.924L612.533 665.903L612.575 757.027L592.191 757.046C591.782 747.991 592.054 736.517 592.061 727.366L592.013 665.924Z"/><path fill="#3B63A7" d="M462.248 686.519C468.802 686.584 475.356 686.514 481.907 686.309C481.76 694.964 482.471 754.969 481.355 756.956L462.254 756.842C462.058 733.402 462.055 709.96 462.248 686.519Z"/><path fill="#3B63A7" d="M468.559 654.099C477.555 653.391 487.652 656.895 484.265 668.972C483.381 672.123 479.218 674.51 476.252 675.734C457.254 677.931 453.643 658.983 468.559 654.099Z"/></svg>