<?xml version="1.0" encoding="utf-8" ?><svg xmlns="http://www.w3.org/2000/svg" xmlns:xlink="http://www.w3.org/1999/xlink" width="1024" height="1024" viewBox="0 0 1024 1024"><path fill="#518DC6" d="M270.64 520.887C266.738 517.849 257.794 508.419 253.787 504.411L220.672 471.28L167.463 418.263C157.591 408.452 146.298 397.658 136.88 387.539C105.805 354.147 91.8241 307.385 94.0615 262.107C96.3872 214.634 117.656 170.077 153.104 138.415C187.178 108.056 231.919 92.4796 277.479 95.1134C306 96.6461 335.174 105.177 359.929 119.524C383.309 133.075 398.462 150.726 417.444 169.528L471.227 223.017L514.158 265.518C520.143 271.467 528.111 278.832 533.64 284.981C544.498 294.831 556.099 306.905 566.601 317.361C584.079 334.806 601.647 352.161 619.306 369.424L689.299 438.385C704.81 453.651 722.642 470.603 737.472 486.402C741.64 489.722 750.975 499.575 755.172 503.8L789.159 537.908L844.601 593.514C859.1 607.98 896.186 642.618 904.342 660.493C918.631 681.763 927.655 714.583 929.196 739.958C933.06 803.554 902.708 864.139 849.976 899.497C811.618 925.343 764.507 934.75 719.165 925.618C693.275 920.485 656.411 905.316 637.672 886.387C630.812 881.949 607.765 857.628 601.222 850.978L537.07 786.335L474.592 724.221C466.666 716.285 455.649 706.146 448.604 698.157C446.83 696.989 429.651 679.618 427.135 677.129L363.593 613.81L297.743 548.221L279.799 530.349C277.654 528.213 272.219 523.048 270.64 520.887Z"/><path fill="#72C7EE" d="M637.672 886.387L638.163 885.918C640.744 887.606 641.82 889.161 644.155 890.775C650.882 895.425 657.205 900.126 664.344 904.219C693.141 920.613 725.815 928.964 758.946 928.397C759.332 927.433 759.327 927.923 758.916 926.928L756.345 926.984C749.891 923.417 748.296 925.605 741.166 925.537C739.673 924.607 735.224 921.434 734.805 919.799C736.636 917.379 739.091 917.524 741.89 917.22C745.703 911.616 747.742 911.307 753.057 907.968C752.838 908.106 753.865 905.393 754.251 904.839C759.747 903.916 758.032 899.308 760.878 896.949L762.308 897.111C763.224 896.577 763.244 896.614 763.673 895.629C765.933 890.449 770.797 887.629 775.07 883.569C780.697 882.885 777.379 880.038 780.675 878.704L781.919 879.632C783.684 878.831 785.28 873.337 787.18 872.826C793.902 870.967 806.309 874.069 811.707 869.318C816.955 864.7 818.956 863.609 825.399 860.668C825.774 859.579 825.79 859.223 825.731 858.07L826.376 857.419L826.698 859.333L827.109 858.972C827.471 854.182 829.038 856.867 830.784 853.336L829.458 852.403L829.896 851.289C829.628 849.581 829.563 850.031 827.828 848.556L828.798 846.756L828.427 845.903C827.029 845.697 826.732 846.164 825.183 846.865L824.492 846.376C828.5 841.202 825.822 844.13 824.376 841.007C828.567 831.603 828.978 829.867 839.332 825.403C846.174 822.453 852.987 818.149 858.665 813.299C862.065 810.393 868.566 804.357 873.128 805.202C873.834 804.592 873.864 804.067 874.227 803.182C879.28 802.627 882.786 801.549 887.59 799.865C889.177 798.111 888.47 796.648 889.272 794.571C890.151 792.293 890.53 794.268 892.09 793.542L892.67 790.422C893.755 789.095 894.137 789.409 896.258 788.885C896.445 788.533 896.636 788.182 896.83 787.834C899.766 782.617 908.375 784.453 912.426 787.172C913.947 789.782 911.262 794.625 911.2 796.488L911.765 796.748L911.794 795.008C912.903 793.441 915.907 789.131 917.72 788.722C919.172 791.015 916.744 800.014 916.821 804.129C917.628 805.12 918.396 805.829 918.616 807.134L919.137 806.972L919.558 805.852L918.741 804.629C919.027 803.467 919.46 803.53 920.741 802.61C922.12 799.811 926.522 780.2 926.527 776.035C926.528 775.176 923.848 773.213 922.624 772.663C921.464 773.57 920.856 774.034 919.585 774.833C918.489 771.439 921.244 756.805 923.178 753.016C923.998 751.41 923.69 751.96 925.518 751.341C924.669 750.38 924.839 750.92 924.872 749.768C926.905 749.147 927.348 749.079 928.421 747.378C928.915 743.531 928.36 739.294 928.007 735.469C925.98 713.529 919.613 692.058 910.091 672.228C908.351 668.604 905.632 665.065 903.887 661.302L904.342 660.493C918.631 681.763 927.655 714.583 929.196 739.958C933.06 803.554 902.708 864.139 849.976 899.497C811.618 925.343 764.507 934.75 719.165 925.618C693.275 920.485 656.411 905.316 637.672 886.387Z"/><path fill="#3152A1" d="M533.64 284.981C544.498 294.831 556.099 306.905 566.601 317.361C584.079 334.806 601.647 352.161 619.306 369.424L689.299 438.385C704.81 453.651 722.642 470.603 737.472 486.402C734.002 485.548 721.902 472.422 718.502 469.016L676.432 427.346C671.504 422.42 648.844 398.501 644.528 397.615L643.756 398.21C643.754 399.12 643.85 399.528 644.159 400.383C642.488 401.394 643.23 401.352 641.625 401.353L639.72 398.008C638.606 397.388 636.44 397.541 635.619 397.833C626.744 401.001 592.694 424.891 588.963 430.484C589.46 434.424 589.028 438.536 584.952 440.459C582.324 440.322 582.919 439.831 580.274 438.523C574.031 444.736 565.369 449.664 558.755 455.826C554.869 459.446 549.525 465.483 545.379 468.435C539.607 472.543 533.135 475.496 527.16 479.799L526.712 479.417C527.441 476.844 528.533 474.551 529.6 472.099L530.496 472.058L530.498 470.864C525.559 472.403 520.069 481.138 513.416 480.916C512.79 478.844 516.359 478.452 516.779 475.821L515.468 475.311C511.783 476.953 508.518 480.004 505.422 482.476C504.097 483.533 505.762 483.474 504.369 485.156C503.218 484.654 503.234 484.564 502.005 484.577C496.992 487.492 496.717 493.627 493.002 496.53C488.027 500.417 483.624 504.33 477.257 504.168L477.055 503.418C478.903 496.535 491.595 489.447 496.986 484.944C504.275 478.855 512.247 472.134 519.64 466.371C523.178 463.614 528.945 455.399 532.368 452.533C535.505 449.906 558.411 430.326 558.855 427.774L556.717 427.557L556.641 426.903C558.775 423.877 561.202 422.89 564.436 421.15L564.411 419.708C566.978 416.468 573.52 413.387 575.799 410.914L576.517 410.913L576.947 411.402C575.568 412.878 573.954 415.241 572.744 416.904C579.061 412.68 601.895 395.706 603.453 389.03C602.103 389.628 600.925 390.276 599.628 390.971L598.95 390.759C599.249 389.534 604.588 383.391 605.768 382.35C609.228 379.301 610.775 368.626 612.428 366.796C609.418 359.428 578.767 330.991 571.982 324.352C564.257 316.74 556.575 309.084 548.936 301.386C545.304 297.797 535.73 289.156 533.64 284.981Z"/><path fill="#3152A1" d="M270.64 520.887L271.484 520.713C273.624 522.371 285.236 534.304 287.972 537.029L326.381 575.495C330.261 579.394 335.356 584.799 339.657 588.404C340.189 588.849 341.574 588.836 342.207 588.651C345.957 587.554 351.73 585.136 355.573 587.659C359.143 587.685 360.787 585.146 363.006 585.572L363.384 586.246C362.889 587.997 362.63 588.591 361.865 590.256C363.303 590.704 378.842 580.252 380.258 578.888C387.836 571.582 393.807 567.658 403.856 564.616C405.689 564.061 407.243 561.866 409.816 561.654L410.441 562.237C409.987 563.97 408.932 565.485 407.464 566.513C407.307 566.601 407.149 566.689 406.992 566.778L407.059 567.677L409.077 568.759L404.229 574.784C405.204 576.32 407.793 578.705 407.464 579.257C404.177 584.794 397.221 590.562 391.893 594.19C391.234 595.039 388.761 592.543 388.507 592.642C385.11 593.967 381.962 597.901 379.701 600.555C373.514 607.815 377.015 610.759 380.459 617.851C381.608 620.216 381.295 626.621 382.019 629.466C399.654 649.644 419.979 667.844 438.598 687.204C441.826 690.561 446.251 694.259 449.017 697.687L448.604 698.157C446.83 696.989 429.651 679.618 427.135 677.129L363.593 613.81L297.743 548.221L279.799 530.349C277.654 528.213 272.219 523.048 270.64 520.887Z"/><path fill="#3152A1" d="M576.517 410.913C577.41 409.881 577.51 409.396 578.601 409.058L579.099 409.54L578.21 411.053C577.675 411.02 577.028 411.011 576.517 410.913Z"/><path fill="#3152A1" d="M382.214 571.982C382.428 572.268 382.641 572.554 382.855 572.84C382.287 576.785 376.625 578.246 373.827 581.148C372.656 581.339 373.187 581.465 372.232 580.78C372.604 578.295 379.638 573.918 382.214 571.982Z"/><path fill="#72C7EE" d="M915.728 772.063C917.041 772.738 916.646 772.383 917.589 773.453L916.872 774.378L916.491 774.759C916.076 773.596 916.007 773.261 915.728 772.063Z"/><path fill="#3152A1" d="M555.11 428.269L555.944 428.092L556.305 428.448L554.952 430.025L554.69 430.012L554.343 429.256L555.11 428.269Z"/><defs><linearGradient id="gradient_0" gradientUnits="userSpaceOnUse" x1="328.03632" y1="960.32837" x2="153.71028" y2="747.97095"><stop offset="0" stop-color="#1B237E"/><stop offset="1" stop-color="#375EA5"/></linearGradient></defs><path fill="url(#gradient_0)" d="M31.7201 863.525C25.052 844.772 25.9205 803.192 25.9738 782.794L25.9855 732.286L25.9982 607.363L25.8531 473.941C25.861 452.506 25.7818 430.931 25.9821 409.493C25.9614 403.817 27.4693 398.514 31.9649 394.696C37.2302 390.224 45.0328 390.911 49.8593 395.671C54.7288 400.474 59.4337 405.166 64.2022 409.937L89.5 435.086L197.617 543.526L258.878 604.492L276.204 621.782C278.586 624.163 283.719 629.043 285.571 631.471C290.231 635.4 295.623 641.027 300.062 645.432L323.423 668.657C334.093 679.279 347.272 691.762 356.821 703.115C380.353 731.091 393.283 764.765 396.354 801.002C400.672 850.01 385.414 898.735 353.915 936.528C322.547 973.528 277.055 999.911 228.278 1003.86C178.61 1008.13 129.314 992.223 91.5161 959.718C67.2048 938.991 48.5615 912.424 37.3378 882.513C35.5222 877.658 32.3417 868.491 31.7201 863.525Z"/><defs><linearGradient id="gradient_1" gradientUnits="userSpaceOnUse" x1="175.91779" y1="769.45514" x2="-69.02446" y2="481.40604"><stop offset="0" stop-color="#3359A4"/><stop offset="1" stop-color="#71C6EB"/></linearGradient></defs><path fill="url(#gradient_1)" d="M31.7201 863.525C25.052 844.772 25.9205 803.192 25.9738 782.794L25.9855 732.286L25.9982 607.363L25.8531 473.941C25.861 452.506 25.7818 430.931 25.9821 409.493C25.9614 403.817 27.4693 398.514 31.9649 394.696C37.2302 390.224 45.0328 390.911 49.8593 395.671C54.7288 400.474 59.4337 405.166 64.2022 409.937L89.5 435.086L197.617 543.526L258.878 604.492L276.204 621.782C278.586 624.163 283.719 629.043 285.571 631.471C286.995 633.958 289.371 635.662 289.123 638.259C288.431 645.512 293.654 652.491 299.206 657.397L299.525 658.324C297.042 660.449 292.794 665.966 291.589 666.826C284.996 671.525 284.805 677.111 278.912 682.26C272.388 687.96 262.517 692.381 256.199 697.826C248.298 704.635 244.212 707.439 235.279 712.302C228.221 716.145 222.168 730.395 215.114 735.105C206.264 742.712 196.013 746.829 187.286 754.67C173.363 767.218 160.039 782.115 146.501 794.797C143.745 797.378 124.185 812.885 122.74 813.452C105.343 820.274 92.0014 840.053 75.3839 846.184C74.2233 845.72 74.776 846.033 73.7401 845.219C69.9923 850.687 64.5331 850.266 60.0887 853.541C52.066 859.453 50.139 862.943 40.1213 865.579C38.5878 867.633 39.6893 868.526 38.295 870.283C36.5836 870.286 36.4311 870.433 34.9733 869.498C32.9532 866.712 33.3327 863.902 31.7201 863.525Z"/><defs><linearGradient id="gradient_2" gradientUnits="userSpaceOnUse" x1="693.74548" y1="64.822464" x2="921.47284" y2="334.9133"><stop offset="0" stop-color="#1A2279"/><stop offset="1" stop-color="#4378B8"/></linearGradient></defs><path fill="url(#gradient_2)" d="M795.568 450.066C794.865 449.675 795.13 449.877 794.443 449.192C771.046 425.873 747.444 401.474 723.953 378.36C670.064 325.339 628.272 291.528 627.035 209.618C625.936 160.223 644.844 112.479 679.464 77.2285C751.525 3.27918 868.414 0.897374 942.25 73.5122C976.876 107.346 996.694 153.516 997.37 201.923C998.18 231.53 997.617 263.494 997.634 293.293L997.688 460.294L997.688 566.117C997.675 576.332 997.72 586.547 997.82 596.762C997.884 603.345 998.029 609.951 997.763 616.532C997.226 629.827 982.422 636 972.54 626.929C963.823 618.929 955.537 610.485 947.17 602.152L897.987 552.903C875.445 530.543 853.019 508.067 830.71 485.475C821.487 476.221 812.202 467.027 802.966 457.785C800.453 455.269 797.855 452.794 795.568 450.066Z"/><defs><linearGradient id="gradient_3" gradientUnits="userSpaceOnUse" x1="883.45117" y1="320.76306" x2="1082.6567" y2="546.49744"><stop offset="0" stop-color="#3F71B4"/><stop offset="1" stop-color="#73C8EC"/></linearGradient></defs><path fill="url(#gradient_3)" d="M789.233 435.384C786.547 434.085 783.209 432.518 781.952 429.752C782.853 426.987 782.781 430.199 784.101 428.175C786.648 424.27 786.345 422.118 790.019 418.661C790.765 418.443 791.509 418.217 792.25 417.983C793.179 417.701 801.272 413.14 801.363 412.936C805.475 404.355 806.77 401.912 815.821 398.846C824.319 395.967 835.962 384.514 843.022 378.679C847.303 374.386 854.862 370.731 858.927 366.582C875.232 349.946 893.799 335.988 909.936 319.063C913.449 315.38 919.207 311.809 922.9 308.204C928.185 303.044 933.208 299.12 939.635 295.506C962.321 277.973 983.487 260.711 994.96 233.534C997.469 227.593 995.87 204.102 997.37 201.923C998.18 231.53 997.617 263.494 997.634 293.293L997.688 460.294L997.688 566.117C997.675 576.332 997.72 586.547 997.82 596.762C997.884 603.345 998.029 609.951 997.763 616.532C997.226 629.827 982.422 636 972.54 626.929C963.823 618.929 955.537 610.485 947.17 602.152L897.987 552.903C875.445 530.543 853.019 508.067 830.71 485.475C821.487 476.221 812.202 467.027 802.966 457.785C800.453 455.269 797.855 452.794 795.568 450.066L795.727 449.059C792.291 445.292 790.69 440.232 789.233 435.384Z"/><path fill="#010002" fill-opacity="0.015686275" d="M639.752 34.8662C640.795 35.5981 640.469 35.1023 640.723 36.3576L639.978 37.1023L639.688 36.6187C638.087 37.2904 638.737 37.3875 637.497 37.0076C638.148 35.4697 638.006 35.9276 639.752 34.8662Z"/></svg>